<?xml version="1.0" encoding="UTF-8" standalone="no"?>
<!-- Created with Inkscape (http://www.inkscape.org/) -->

<svg
   xmlns:dc="http://purl.org/dc/elements/1.1/"
   xmlns:cc="http://creativecommons.org/ns#"
   xmlns:rdf="http://www.w3.org/1999/02/22-rdf-syntax-ns#"
   xmlns:svg="http://www.w3.org/2000/svg"
   xmlns="http://www.w3.org/2000/svg"
   xmlns:sodipodi="http://sodipodi.sourceforge.net/DTD/sodipodi-0.dtd"
   xmlns:inkscape="http://www.inkscape.org/namespaces/inkscape"
   width="139.851mm"
   height="138.12932mm"
   viewBox="0 0 139.851 138.12932"
   version="1.1"
   id="svg8"
   inkscape:version="0.92.2 (5c3e80d, 2017-08-06)"
   sodipodi:docname="logo.svg">
  <defs
     id="defs2">
    <inkscape:perspective
       sodipodi:type="inkscape:persp3d"
       inkscape:vp_x="22.080153 : 174.43135 : 1"
       inkscape:vp_y="0 : 1000 : 0"
       inkscape:vp_z="298.06387 : 181.62023 : 1"
       inkscape:persp3d-origin="105.00001 : 99.000004 : 1"
       id="perspective5015" />
  </defs>
  <sodipodi:namedview
     id="base"
     pagecolor="#ffffff"
     bordercolor="#666666"
     borderopacity="1.0"
     inkscape:pageopacity="0.0"
     inkscape:pageshadow="2"
     inkscape:zoom="1.0305259"
     inkscape:cx="247.30372"
     inkscape:cy="261.03174"
     inkscape:document-units="mm"
     inkscape:current-layer="layer1"
     showgrid="false"
     inkscape:snap-grids="true"
     showguides="false"
     inkscape:measure-start="60,1060"
     inkscape:measure-end="220,340"
     inkscape:snap-page="false"
     inkscape:window-width="1366"
     inkscape:window-height="705"
     inkscape:window-x="-8"
     inkscape:window-y="-8"
     inkscape:window-maximized="1"
     inkscape:pagecheckerboard="false">
    <inkscape:grid
       type="xygrid"
       id="grid4974"
       originx="1.4210856e-014"
       originy="-159.00677" />
  </sodipodi:namedview>
  <metadata
     id="metadata5">
    <rdf:RDF>
      <cc:Work
         rdf:about="">
        <dc:format>image/svg+xml</dc:format>
        <dc:type
           rdf:resource="http://purl.org/dc/dcmitype/StillImage" />
        <dc:title />
      </cc:Work>
    </rdf:RDF>
  </metadata>
  <g
     inkscape:label="Layer 1"
     inkscape:groupmode="layer"
     id="layer1"
     transform="translate(0,0.13608235)"
     style="display:inline">
    <rect
       id="rect3907"
       width="139.851"
       height="138.12932"
       x="-1.4210855e-014"
       y="0.37740952"
       style="opacity:1;fill:#004e68;fill-opacity:1;stroke-width:0.26510763"
       ry="27.322285" />
    <flowRoot
       xml:space="preserve"
       id="flowRoot4964"
       style="font-style:normal;font-weight:normal;font-size:40px;line-height:1.25;font-family:sans-serif;letter-spacing:0px;word-spacing:0px;fill:#000000;fill-opacity:1;stroke:none"><flowRegion
         id="flowRegion4966"><rect
           id="rect4968"
           width="414.28571"
           height="368.57144"
           x="185.71428"
           y="371.09113" /></flowRegion><flowPara
         id="flowPara4970" /></flowRoot>    <path
       style="opacity:1;fill:#ffffff;fill-opacity:0.97989951;stroke-width:1.01015258"
       d=""
       id="path5001"
       inkscape:connector-curvature="0"
       transform="scale(0.26458333)" />
    <path
       style="opacity:1;fill:#ffffff;fill-opacity:0.97989951;stroke-width:1.01015258"
       d=""
       id="path5007"
       inkscape:connector-curvature="0"
       transform="scale(0.26458333)" />
    <g
       id="g865"
       style="stroke-width:0.05291667;stroke-miterlimit:4;stroke-dasharray:none">
      <path
         sodipodi:nodetypes="ccccc"
         inkscape:connector-curvature="0"
         id="path4980"
         d="M 35.718697,100.95158 51.593676,40.097421 67.468652,100.95158 83.343631,40.097421 96.572783,100.95158"
         style="fill:#004e68;fill-opacity:1;stroke:#000000;stroke-width:0.05291667;stroke-linecap:butt;stroke-linejoin:miter;stroke-miterlimit:4;stroke-dasharray:none;stroke-opacity:1" />
      <path
         inkscape:connector-curvature="0"
         id="path4982"
         d="m 42.333372,95.659921 15.874978,-60.85417 15.874983,60.85417 15.874979,-60.85417 13.229138,60.85417 -6.614567,5.291659"
         style="fill:none;fill-opacity:1;stroke:#000000;stroke-width:0.05291667;stroke-linecap:butt;stroke-linejoin:miter;stroke-miterlimit:4;stroke-dasharray:none;stroke-opacity:1" />
      <path
         inkscape:connector-curvature="0"
         id="path4984"
         d="m 89.958212,34.805751 -6.614581,5.29167"
         style="fill:none;stroke:#000000;stroke-width:0.05291667;stroke-linecap:butt;stroke-linejoin:miter;stroke-miterlimit:4;stroke-dasharray:none;stroke-opacity:1" />
      <path
         inkscape:connector-curvature="0"
         id="path4986"
         d="m 58.20825,34.805751 -6.614575,5.29167"
         style="fill:none;stroke:#000000;stroke-width:0.05291667;stroke-linecap:butt;stroke-linejoin:miter;stroke-miterlimit:4;stroke-dasharray:none;stroke-opacity:1" />
      <path
         inkscape:connector-curvature="0"
         id="path4988"
         d="m 42.333272,95.659921 -6.614575,5.291659"
         style="fill:none;stroke:#000000;stroke-width:0.05291667;stroke-linecap:butt;stroke-linejoin:miter;stroke-miterlimit:4;stroke-dasharray:none;stroke-opacity:1" />
      <path
         inkscape:connector-curvature="0"
         id="path4990"
         d="m 74.083233,95.659921 -6.614581,5.291659"
         style="fill:none;stroke:#000000;stroke-width:0.05291667;stroke-linecap:butt;stroke-linejoin:miter;stroke-miterlimit:4;stroke-dasharray:none;stroke-opacity:1" />
      <path
         inkscape:connector-curvature="0"
         id="path4995"
         d="M 67.352317,99.290848 C 67.282781,99.17082 64.359326,88.072528 60.855748,74.627975 l -6.370143,-24.44464 1.306619,-5.088643 c 0.718637,-2.798752 1.559642,-6.02148 1.868895,-7.161618 L 58.223398,35.860101 64.711,60.73617 71.198604,85.612237 69.418125,92.47606 c -0.979263,3.775101 -1.81623,6.901894 -1.859928,6.948421 -0.0437,0.04653 -0.136345,-0.0136 -0.20588,-0.133633 z"
         style="opacity:1;fill:#ffffff;fill-opacity:0.97989951;stroke-width:0.05291667;stroke-miterlimit:4;stroke-dasharray:none" />
      <path
         inkscape:connector-curvature="0"
         id="path4997"
         d="m 53.163186,45.155032 c -0.538755,-2.096949 -1.047271,-4.064806 -1.130035,-4.373014 -0.123902,-0.461412 0.335743,-0.948865 2.602637,-2.760075 1.514213,-1.209834 2.790452,-2.087682 2.836087,-1.950779 0.07254,0.217636 -3.087168,12.640929 -3.262045,12.82564 -0.0369,0.03898 -0.507889,-1.644822 -1.046644,-3.741772 z"
         style="opacity:1;fill:#ffffff;fill-opacity:0.97989951;stroke-width:0.05291667;stroke-miterlimit:4;stroke-dasharray:none" />
      <path
         inkscape:connector-curvature="0"
         id="path4999"
         d="m 36.199344,99.993894 c 0.07824,-0.212709 3.550145,-13.464082 7.715335,-29.447495 4.165187,-15.983416 7.639285,-28.994539 7.720218,-28.913608 0.08093,0.08093 0.633863,2.024224 1.228733,4.318426 l 1.081588,4.171277 -5.920351,22.689497 c -3.256195,12.479219 -6.026285,22.782157 -6.155756,22.895417 -1.778675,1.555946 -5.777397,4.579082 -5.669767,4.286486 z"
         style="opacity:1;fill:#ffffff;fill-opacity:0.97989951;stroke-width:0.05291667;stroke-miterlimit:4;stroke-dasharray:none" />
      <path
         inkscape:connector-curvature="0"
         id="path5003"
         d="m 72.828702,89.918632 -1.097261,-4.209494 5.795518,-22.25429 5.795517,-22.254291 0.991598,4.480867 c 0.545378,2.464477 0.998646,4.781544 1.007258,5.14904 0.01873,0.798983 -11.01132,43.29363 -11.238055,43.296011 -0.08652,7.94e-4 -0.651082,-1.89262 -1.254575,-4.207843 z"
         style="opacity:1;fill:#ffffff;fill-opacity:0.97989951;stroke-width:0.05291667;stroke-miterlimit:4;stroke-dasharray:none" />
      <path
         inkscape:connector-curvature="0"
         id="path5005"
         d="M 91.400568,75.886982 C 88.491654,62.473393 86.117704,51.258097 86.125118,50.9641 c 0.01103,-0.437571 2.208805,-9.103969 3.501175,-13.806093 0.3072,-1.117701 0.561025,-0.04955 6.805666,28.639552 3.56761,16.390303 6.468541,29.810771 6.446521,29.823262 -0.022,0.01249 -1.3456,1.064866 -2.941263,2.338607 -1.595668,1.273746 -2.979177,2.315902 -3.074464,2.315902 -0.09529,0 -2.553271,-10.974757 -5.462185,-24.388348 z"
         style="opacity:1;fill:#ffffff;fill-opacity:0.97989951;stroke-width:0.05291667;stroke-miterlimit:4;stroke-dasharray:none" />
      <path
         inkscape:connector-curvature="0"
         id="path5009"
         d="m 84.666667,45.389087 c -0.541258,-2.534943 -0.982888,-4.693282 -0.981398,-4.796305 0.0041,-0.281398 5.3619,-4.565185 5.516464,-4.41062 0.112925,0.112921 -3.295938,13.560295 -3.485705,13.750506 -0.03589,0.03597 -0.508101,-2.00864 -1.049361,-4.543581 z"
         style="opacity:1;fill:#ffffff;fill-opacity:0.97989951;stroke-width:0.05291667;stroke-miterlimit:4;stroke-dasharray:none" />
      <path
         inkscape:connector-curvature="0"
         id="path5011"
         d="m 68.046409,99.633216 c 0.07911,-0.206163 0.819004,-3.00247 1.644202,-6.214017 0.825201,-3.211547 1.567982,-6.01958 1.650625,-6.240079 0.08264,-0.220498 0.671129,1.581023 1.307748,4.003379 0.636616,2.422355 1.13489,4.415806 1.107276,4.429889 -0.02761,0.01408 -1.275691,1.00887 -2.773503,2.210636 -2.762096,2.216166 -3.194407,2.482676 -2.936348,1.810192 z"
         style="opacity:1;fill:#ffffff;fill-opacity:0.97989951;stroke-width:0.05291667;stroke-miterlimit:4;stroke-dasharray:none" />
      <path
         inkscape:connector-curvature="0"
         id="path5013"
         d="m 54.111172,48.503422 c -0.26938,-0.685594 -2.0037,-7.506417 -2.005004,-7.885388 -0.0011,-0.294074 0.466955,-0.819428 1.557702,-1.748724 1.840148,-1.567764 3.508717,-2.74792 3.664667,-2.591969 0.0611,0.0611 -0.500385,2.530716 -1.247745,5.488035 -1.636663,6.476286 -1.822575,7.112291 -1.96962,6.738046 z"
         style="opacity:1;fill:#ffffff;fill-opacity:0.97989951;stroke-width:0.05291667;stroke-miterlimit:4;stroke-dasharray:none" />
    </g>
  </g>
</svg>
